<mxfile host="app.diagrams.net" agent="Mozilla/5.0 (Windows NT 10.0; Win64; x64; rv:137.0) Gecko/20100101 Firefox/137.0" version="26.2.6">
  <diagram name="Page-1" id="e7e014a7-5840-1c2e-5031-d8a46d1fe8dd">
    <mxGraphModel dx="1148" dy="693" grid="1" gridSize="10" guides="1" tooltips="1" connect="1" arrows="1" fold="1" page="1" pageScale="1" pageWidth="1169" pageHeight="826" background="none" math="0" shadow="0">
      <root>
        <mxCell id="0" />
        <mxCell id="1" parent="0" />
        <mxCell id="FRDrdqYv-635TSUIWqQK-85" style="edgeStyle=orthogonalEdgeStyle;rounded=0;orthogonalLoop=1;jettySize=auto;html=1;" parent="1" source="FRDrdqYv-635TSUIWqQK-41" target="FRDrdqYv-635TSUIWqQK-43" edge="1">
          <mxGeometry relative="1" as="geometry" />
        </mxCell>
        <mxCell id="FRDrdqYv-635TSUIWqQK-41" value="" style="ellipse;shape=startState;fillColor=#000000;strokeColor=#ff0000;" parent="1" vertex="1">
          <mxGeometry x="504.51" y="120" width="30" height="30" as="geometry" />
        </mxCell>
        <mxCell id="FRDrdqYv-635TSUIWqQK-79" style="edgeStyle=orthogonalEdgeStyle;rounded=0;orthogonalLoop=1;jettySize=auto;html=1;entryX=0.5;entryY=0;entryDx=0;entryDy=0;" parent="1" source="FRDrdqYv-635TSUIWqQK-43" target="FRDrdqYv-635TSUIWqQK-44" edge="1">
          <mxGeometry relative="1" as="geometry" />
        </mxCell>
        <mxCell id="FRDrdqYv-635TSUIWqQK-43" value="Galerie erstellen &#xa;drücken" style="" parent="1" vertex="1">
          <mxGeometry x="464.51" y="170" width="110" height="50" as="geometry" />
        </mxCell>
        <mxCell id="FRDrdqYv-635TSUIWqQK-78" style="edgeStyle=orthogonalEdgeStyle;rounded=0;orthogonalLoop=1;jettySize=auto;html=1;" parent="1" source="FRDrdqYv-635TSUIWqQK-44" target="FRDrdqYv-635TSUIWqQK-46" edge="1">
          <mxGeometry relative="1" as="geometry" />
        </mxCell>
        <mxCell id="FRDrdqYv-635TSUIWqQK-44" value="Galerienamen &#xa;eingeben" style="" parent="1" vertex="1">
          <mxGeometry x="464.5" y="250" width="110" height="50" as="geometry" />
        </mxCell>
        <mxCell id="IRwkAweBPT_Av1tn3aoC-2" style="edgeStyle=orthogonalEdgeStyle;rounded=0;orthogonalLoop=1;jettySize=auto;html=1;entryX=0.5;entryY=0;entryDx=0;entryDy=0;" edge="1" parent="1" source="FRDrdqYv-635TSUIWqQK-46" target="IRwkAweBPT_Av1tn3aoC-1">
          <mxGeometry relative="1" as="geometry" />
        </mxCell>
        <mxCell id="FRDrdqYv-635TSUIWqQK-46" value="Bestätigen" style="" parent="1" vertex="1">
          <mxGeometry x="464.5" y="343" width="110" height="50" as="geometry" />
        </mxCell>
        <mxCell id="FRDrdqYv-635TSUIWqQK-82" style="edgeStyle=orthogonalEdgeStyle;rounded=0;orthogonalLoop=1;jettySize=auto;html=1;dashed=1;" parent="1" source="FRDrdqYv-635TSUIWqQK-55" target="FRDrdqYv-635TSUIWqQK-59" edge="1">
          <mxGeometry relative="1" as="geometry" />
        </mxCell>
        <mxCell id="FRDrdqYv-635TSUIWqQK-55" value="Die erstellte Galerie wird geöffnet. Siehe UC: Galerie Öffnen" style="shape=note;whiteSpace=wrap;size=17" parent="1" vertex="1">
          <mxGeometry x="585.01" y="560" width="170" height="50" as="geometry" />
        </mxCell>
        <mxCell id="FRDrdqYv-635TSUIWqQK-59" value="" style="ellipse;shape=endState;fillColor=#000000;strokeColor=#ff0000" parent="1" vertex="1">
          <mxGeometry x="504.51" y="570" width="30" height="30" as="geometry" />
        </mxCell>
        <mxCell id="FRDrdqYv-635TSUIWqQK-62" value="Galerie erstellen" style="shape=umlFrame;whiteSpace=wrap;html=1;pointerEvents=0;width=106;height=30;" parent="1" vertex="1">
          <mxGeometry x="270" y="110" width="500" height="540" as="geometry" />
        </mxCell>
        <mxCell id="FRDrdqYv-635TSUIWqQK-63" value="" style="ellipse;shape=endState;fillColor=#000000;strokeColor=#ff0000" parent="1" vertex="1">
          <mxGeometry x="180" y="363" width="30" height="30" as="geometry" />
        </mxCell>
        <mxCell id="FRDrdqYv-635TSUIWqQK-67" style="edgeStyle=orthogonalEdgeStyle;rounded=0;orthogonalLoop=1;jettySize=auto;html=1;" parent="1" source="FRDrdqYv-635TSUIWqQK-66" target="FRDrdqYv-635TSUIWqQK-63" edge="1">
          <mxGeometry relative="1" as="geometry" />
        </mxCell>
        <mxCell id="FRDrdqYv-635TSUIWqQK-66" value="Abbrechen" style="shape=dataStorage;whiteSpace=wrap;html=1;fixedSize=1;" parent="1" vertex="1">
          <mxGeometry x="300" y="354.5" width="110" height="47" as="geometry" />
        </mxCell>
        <mxCell id="FRDrdqYv-635TSUIWqQK-73" style="edgeStyle=orthogonalEdgeStyle;rounded=0;orthogonalLoop=1;jettySize=auto;html=1;entryX=0.5;entryY=1;entryDx=0;entryDy=0;" parent="1" edge="1">
          <mxGeometry relative="1" as="geometry">
            <Array as="points">
              <mxPoint x="670" y="500" />
            </Array>
            <mxPoint x="549.8299999999999" y="500" as="sourcePoint" />
            <mxPoint x="670" y="295" as="targetPoint" />
          </mxGeometry>
        </mxCell>
        <mxCell id="FRDrdqYv-635TSUIWqQK-74" value="bereits vorhanden" style="edgeLabel;html=1;align=center;verticalAlign=middle;resizable=0;points=[];" parent="FRDrdqYv-635TSUIWqQK-73" vertex="1" connectable="0">
          <mxGeometry x="-0.3552" relative="1" as="geometry">
            <mxPoint x="-50" y="-15" as="offset" />
          </mxGeometry>
        </mxCell>
        <mxCell id="FRDrdqYv-635TSUIWqQK-76" style="edgeStyle=orthogonalEdgeStyle;rounded=0;orthogonalLoop=1;jettySize=auto;html=1;" parent="1" source="FRDrdqYv-635TSUIWqQK-48" target="FRDrdqYv-635TSUIWqQK-59" edge="1">
          <mxGeometry relative="1" as="geometry">
            <mxPoint x="519.5" y="630" as="targetPoint" />
          </mxGeometry>
        </mxCell>
        <mxCell id="FRDrdqYv-635TSUIWqQK-81" value="noch nicht vorhanden" style="edgeLabel;html=1;align=center;verticalAlign=middle;resizable=0;points=[];" parent="FRDrdqYv-635TSUIWqQK-76" vertex="1" connectable="0">
          <mxGeometry x="0.6" y="1" relative="1" as="geometry">
            <mxPoint x="-56" y="-20" as="offset" />
          </mxGeometry>
        </mxCell>
        <mxCell id="FRDrdqYv-635TSUIWqQK-48" value="" style="rhombus;fillColor=#ffffc0;strokeColor=#ff0000;" parent="1" vertex="1">
          <mxGeometry x="479.06" y="480" width="80.88" height="40" as="geometry" />
        </mxCell>
        <mxCell id="FRDrdqYv-635TSUIWqQK-71" style="edgeStyle=orthogonalEdgeStyle;rounded=0;orthogonalLoop=1;jettySize=auto;html=1;entryX=1;entryY=0.5;entryDx=0;entryDy=0;" parent="1" source="FRDrdqYv-635TSUIWqQK-70" target="FRDrdqYv-635TSUIWqQK-44" edge="1">
          <mxGeometry relative="1" as="geometry" />
        </mxCell>
        <mxCell id="FRDrdqYv-635TSUIWqQK-70" value="Fehlermeldung anzeigen" style="" parent="1" vertex="1">
          <mxGeometry x="600" y="250" width="140" height="50" as="geometry" />
        </mxCell>
        <mxCell id="FRDrdqYv-635TSUIWqQK-87" style="edgeStyle=orthogonalEdgeStyle;rounded=0;orthogonalLoop=1;jettySize=auto;html=1;dashed=1;" parent="1" source="FRDrdqYv-635TSUIWqQK-86" target="FRDrdqYv-635TSUIWqQK-66" edge="1">
          <mxGeometry relative="1" as="geometry" />
        </mxCell>
        <mxCell id="FRDrdqYv-635TSUIWqQK-86" value="Man kann jederzeit die Aktivität abbrechen" style="shape=note;whiteSpace=wrap;size=17" parent="1" vertex="1">
          <mxGeometry x="305" y="430" width="100" height="70" as="geometry" />
        </mxCell>
        <mxCell id="IRwkAweBPT_Av1tn3aoC-1" value="Name validieren" style="" vertex="1" parent="1">
          <mxGeometry x="465" y="413" width="110" height="50" as="geometry" />
        </mxCell>
        <mxCell id="IRwkAweBPT_Av1tn3aoC-3" style="edgeStyle=orthogonalEdgeStyle;rounded=0;orthogonalLoop=1;jettySize=auto;html=1;entryX=0.507;entryY=-0.002;entryDx=0;entryDy=0;entryPerimeter=0;" edge="1" parent="1">
          <mxGeometry relative="1" as="geometry">
            <mxPoint x="519.45" y="463" as="sourcePoint" />
            <mxPoint x="519.51616" y="479.91999999999996" as="targetPoint" />
          </mxGeometry>
        </mxCell>
      </root>
    </mxGraphModel>
  </diagram>
</mxfile>
